<?xml version="1.0" standalone="no"?>
<!DOCTYPE svg PUBLIC "-//W3C//DTD SVG 20010904//EN"
 "http://www.w3.org/TR/2001/REC-SVG-20010904/DTD/svg10.dtd">
<svg version="1.0" xmlns="http://www.w3.org/2000/svg"
 width="1000.000000pt" height="250.000000pt" viewBox="0 0 1000.000000 250.000000"
 preserveAspectRatio="xMidYMid meet">

<g transform="translate(0.000000,250.000000) scale(0.100000,-0.100000)"
fill="#000000" stroke="none">
<path d="M9530 2269 c-157 -15 -309 -28 -337 -28 -48 -1 -53 -3 -59 -27 -11
-42 15 -1009 35 -1334 11 -175 30 -360 37 -372 3 -5 29 -6 57 -2 101 12 632
96 640 101 16 10 -2 65 -54 168 -86 168 -290 556 -326 618 -18 32 -33 64 -33
70 0 32 196 455 303 655 42 79 77 152 77 163 0 23 20 24 -340 -12z"/>
<path d="M160 2286 c0 -3 39 -86 86 -183 98 -203 129 -271 224 -506 l69 -167
-215 -436 c-118 -240 -213 -442 -211 -448 3 -8 119 -24 328 -45 178 -18 342
-35 365 -38 l41 -5 7 68 c26 255 59 1675 39 1687 -6 4 -114 16 -240 27 -239
21 -392 37 -455 46 -21 3 -38 3 -38 0z"/>
<path d="M8845 2134 c-60 -7 -261 -25 -445 -39 -184 -14 -477 -39 -650 -55
-173 -16 -443 -34 -600 -40 -157 -6 -406 -18 -555 -25 -509 -27 -1528 -39
-2235 -26 -355 6 -737 16 -850 21 -113 6 -349 17 -525 26 -405 19 -928 54
-1485 99 -239 20 -453 37 -475 38 l-40 2 -7 -350 c-6 -365 -20 -748 -40 -1167
-6 -136 -9 -251 -5 -254 9 -9 223 -28 737 -64 239 -16 530 -37 645 -45 221
-16 879 -39 1575 -55 1053 -24 2491 -1 3465 55 681 40 1754 130 1773 150 3 3
-2 94 -11 203 -27 315 -45 661 -53 1027 -7 329 -9 382 -12 473 l-2 42 -47 -1
c-27 -1 -97 -8 -158 -15z m-22 -439 c10 -4 28 -26 40 -49 17 -34 21 -58 22
-136 0 -100 -12 -137 -55 -178 -21 -19 -21 -19 18 -58 30 -29 42 -52 51 -92
14 -67 14 -222 0 -259 -13 -34 -55 -80 -91 -99 -29 -15 -234 -48 -247 -39 -5
2 -11 78 -15 167 -12 319 -24 733 -21 736 1 2 52 8 111 15 102 12 143 10 187
-8z m-7452 -5 c10 0 20 -8 23 -17 6 -20 45 -297 71 -498 9 -71 25 -192 36
-268 25 -184 26 -177 -13 -177 -18 0 -38 4 -45 8 -6 4 -17 45 -23 92 -6 47
-14 88 -18 92 -7 7 -194 39 -199 35 -1 -2 -11 -41 -21 -87 -18 -85 -18 -85
-51 -88 -19 -2 -38 1 -43 6 -6 6 10 102 42 253 45 215 130 645 130 657 0 3 21
2 46 -2 26 -3 55 -6 65 -6z m3254 -30 c31 -60 107 -66 127 -10 7 22 16 30 34
30 21 0 24 -5 24 -34 0 -96 -132 -141 -204 -70 -26 26 -50 90 -40 106 12 19
44 7 59 -22z m3713 -4 c43 -22 70 -58 81 -106 10 -44 32 -469 31 -600 -1 -113
-51 -184 -149 -210 -86 -23 -167 14 -199 90 -16 38 -41 362 -41 551 -1 162 25
226 114 272 38 20 127 22 163 3z m-6658 -3 l33 -6 -8 -212 -7 -212 98 -12 c53
-6 100 -9 103 -6 3 4 7 101 10 217 l3 210 30 -6 c17 -3 37 -6 46 -6 13 0 14
-39 7 -337 -4 -186 -10 -396 -14 -468 l-6 -130 -40 0 -40 0 0 210 0 210 -94
12 c-52 7 -97 10 -100 7 -3 -3 -8 -95 -11 -204 -4 -110 -9 -202 -12 -206 -4
-3 -25 -3 -48 1 l-41 7 6 116 c5 97 25 745 25 805 0 19 10 20 60 10z m6301
-233 c3 -113 12 -316 19 -453 7 -136 11 -249 9 -251 -2 -3 -22 -6 -44 -8 l-40
-3 -11 197 c-6 109 -13 200 -15 203 -3 3 -48 -1 -100 -8 l-94 -12 0 -40 c0
-22 4 -115 8 -207 l8 -168 -45 0 c-41 0 -46 2 -46 23 0 12 -7 146 -14 297 -8
151 -16 347 -18 435 l-3 159 38 9 c21 5 41 6 45 3 3 -4 9 -98 12 -209 l5 -202
45 1 c25 0 70 4 100 8 l56 7 -4 199 c-3 110 -2 207 2 215 4 12 16 15 43 13
l38 -3 6 -205z m-5621 153 c5 -4 22 -111 40 -238 17 -126 47 -336 65 -465 18
-129 30 -238 27 -242 -4 -3 -25 -3 -47 1 l-40 6 -10 80 c-6 44 -14 85 -18 91
-6 10 -125 28 -186 29 -10 0 -21 -28 -35 -85 -17 -67 -25 -85 -39 -84 -65 3
-69 4 -63 19 8 21 151 740 166 834 l12 74 60 -6 c33 -3 64 -9 68 -14z m5160
-3 c0 -5 -13 -73 -30 -152 -16 -79 -50 -251 -75 -383 -25 -132 -53 -261 -61
-287 -25 -75 -103 -129 -171 -116 -26 5 -32 78 -6 78 10 0 32 9 49 19 24 15
34 32 47 78 l17 59 -50 150 c-49 142 -160 510 -160 526 0 5 20 8 45 8 44 0 44
-1 56 -42 40 -150 131 -464 139 -477 6 -12 10 -7 14 19 3 19 15 89 26 155 11
66 30 174 43 240 21 109 25 120 47 126 38 10 70 10 70 -1z m-4735 -25 c61 -3
125 -8 143 -11 33 -5 33 -6 30 -52 l-3 -47 -71 3 -71 4 -7 -279 c-3 -153 -9
-340 -12 -415 l-7 -138 -44 0 -45 0 9 303 c4 166 8 354 8 417 l0 115 -30 3
c-121 10 -134 19 -120 83 7 31 8 31 59 25 28 -3 101 -8 161 -11z m4227 -1 c4
-3 -14 -54 -39 -112 -25 -59 -67 -160 -94 -224 l-49 -118 114 -232 c63 -128
112 -235 110 -237 -2 -2 -23 -5 -46 -5 l-43 -1 -90 177 c-49 98 -92 178 -96
178 -3 0 -14 -19 -25 -42 -19 -39 -20 -55 -14 -183 4 -77 5 -143 3 -148 -2 -4
-22 -7 -43 -7 -49 0 -46 -15 -60 340 -6 151 -13 345 -17 431 l-6 156 39 6 c21
4 42 3 47 -2 5 -5 11 -93 13 -197 5 -199 10 -243 23 -228 5 5 27 54 49 109
137 335 135 329 172 336 19 4 38 7 41 8 3 0 8 -2 11 -5z m-3739 -28 c41 -17
82 -61 102 -109 22 -54 28 -187 18 -467 -8 -223 -11 -249 -31 -287 -67 -129
-296 -98 -343 46 -15 45 -5 635 12 696 14 52 54 104 93 121 40 17 108 18 149
0z m3257 -127 c0 -66 4 -220 10 -342 5 -122 12 -277 14 -344 l6 -123 -44 0
-44 0 -6 73 c-3 39 -11 223 -17 407 -6 184 -15 339 -19 343 -4 5 -39 5 -78 1
l-71 -6 -3 -367 c-3 -317 -5 -370 -19 -396 -26 -47 -54 -67 -103 -72 -43 -5
-44 -5 -51 27 -8 36 -8 36 36 58 19 10 36 28 40 42 4 14 7 199 8 412 l1 387
33 6 c33 5 112 10 235 13 l72 2 0 -121z m-2657 92 l47 -1 0 -465 0 -465 -45 0
-45 0 0 414 0 413 -71 7 c-39 4 -75 4 -80 -1 -5 -5 -13 -141 -19 -303 -14
-410 -18 -440 -72 -485 -25 -21 -39 -25 -77 -23 -45 3 -46 4 -46 37 0 31 4 36
32 43 18 5 38 18 44 29 10 20 18 135 38 591 5 113 11 210 14 215 3 4 56 5 119
1 62 -3 134 -7 161 -7z m2054 -13 c20 -11 42 -40 59 -73 22 -46 27 -74 35
-187 4 -73 8 -223 9 -333 0 -189 -1 -203 -22 -245 -34 -66 -66 -84 -151 -88
-87 -4 -127 14 -172 77 l-30 43 -7 321 c-8 354 -4 394 48 456 49 59 160 73
231 29z m-1825 -335 l3 -348 36 110 c19 61 64 215 100 342 l64 233 53 0 52 0
0 -465 0 -465 -40 0 -40 0 -1 68 c0 37 0 187 1 335 1 147 -3 267 -7 267 -5 0
-30 -75 -56 -167 -26 -93 -71 -242 -101 -333 l-53 -165 -44 0 -44 0 -5 55 c-3
31 -4 241 -2 468 l4 412 39 0 39 0 2 -347z m478 -8 c3 -187 8 -335 11 -330 8
11 132 446 179 623 l11 42 48 0 48 0 6 -212 c4 -116 7 -325 7 -465 l0 -253
-40 0 -40 0 -1 278 c-1 152 -4 306 -8 342 l-6 65 -49 -179 c-47 -172 -141
-479 -152 -497 -7 -11 -81 -12 -88 0 -4 6 -10 846 -7 919 1 9 13 12 39 10 l37
-3 5 -340z m936 321 c3 -13 4 -35 2 -47 -3 -23 -6 -24 -128 -29 l-125 -5 -3
-30 c-2 -16 -1 -85 3 -152 l7 -123 77 0 c98 0 154 -26 185 -85 18 -34 21 -61
24 -175 3 -124 1 -139 -20 -180 -35 -68 -74 -83 -230 -88 l-128 -4 0 164 c0
91 -3 300 -7 466 l-6 301 49 4 c27 2 104 4 171 5 122 2 123 2 129 -22z"/>
<path d="M8643 1613 c-23 -4 -23 -7 -23 -150 l0 -146 51 6 c100 12 135 62 127
185 -6 92 -22 113 -87 111 -25 -1 -56 -4 -68 -6z"/>
<path d="M8665 1231 c-22 -3 -40 -10 -40 -16 1 -5 5 -83 9 -173 l9 -164 51 7
c109 15 139 57 130 185 -12 158 -33 180 -159 161z"/>
<path d="M1266 1301 c-26 -132 -46 -244 -42 -249 3 -5 32 -13 63 -17 32 -3 68
-9 81 -12 19 -4 22 -1 22 26 0 17 -7 77 -14 133 -8 57 -23 160 -32 231 -9 70
-20 127 -23 127 -3 0 -28 -108 -55 -239z"/>
<path d="M8197 1560 c-44 -35 -51 -76 -43 -265 13 -314 22 -412 39 -438 33
-51 123 -42 152 14 18 34 18 123 1 429 -7 127 -17 234 -24 246 -21 40 -84 46
-125 14z"/>
<path d="M2286 1410 c-26 -110 -94 -476 -88 -481 10 -10 156 -28 164 -20 6 5
-56 489 -66 516 -2 5 -6 -1 -10 -15z"/>
<path d="M3160 1417 c-44 -22 -50 -63 -52 -398 l-3 -311 29 -24 c41 -36 110
-31 140 9 20 27 21 42 24 340 3 276 1 316 -13 343 -26 50 -76 66 -125 41z"/>
<path d="M5773 1375 c-38 -27 -42 -73 -35 -387 7 -280 8 -298 28 -325 25 -34
78 -49 117 -34 56 22 61 54 53 361 -7 296 -12 339 -47 376 -27 28 -82 32 -116
9z"/>
<path d="M5313 963 l-43 -4 0 -170 0 -169 69 0 c38 0 77 3 86 6 32 13 45 59
45 159 0 123 -14 160 -67 174 -21 6 -40 10 -43 9 -3 -1 -24 -3 -47 -5z"/>
</g>
</svg>
