<?xml version="1.0" standalone="no"?>
<!DOCTYPE svg PUBLIC "-//W3C//DTD SVG 20010904//EN"
 "http://www.w3.org/TR/2001/REC-SVG-20010904/DTD/svg10.dtd">
<svg version="1.0" xmlns="http://www.w3.org/2000/svg"
 width="1000.000000pt" height="250.000000pt" viewBox="0 0 1000.000000 250.000000"
 preserveAspectRatio="xMidYMid meet">

<g transform="translate(0.000000,250.000000) scale(0.100000,-0.100000)"
fill="#000000" stroke="none">
<path d="M9754 2376 c-138 -60 -262 -476 -281 -941 -9 -248 18 -400 88 -478
32 -37 42 -42 80 -42 59 0 95 27 142 106 121 204 140 557 41 739 l-26 47 35
69 c62 125 82 198 81 304 0 78 -4 103 -22 137 -36 70 -75 86 -138 59z m50
-172 c10 -26 7 -86 -9 -144 -18 -68 -59 -147 -131 -253 l-56 -82 7 45 c14 90
55 252 84 326 40 103 88 152 105 108z m-57 -583 c22 -49 30 -261 13 -343 -27
-137 -71 -209 -119 -193 -37 12 -53 78 -59 247 l-5 157 68 91 c37 49 71 87 77
84 6 -4 17 -23 25 -43z"/>
<path d="M5007 2238 c-8 -13 -20 -47 -27 -75 -25 -107 -121 -138 -165 -53 -8
16 -15 42 -15 57 0 36 -25 73 -50 73 -74 0 -34 -220 50 -280 85 -61 198 -16
246 98 29 68 38 136 23 168 -18 37 -44 42 -62 12z"/>
<path d="M460 2208 c-32 -52 -74 -168 -146 -402 -36 -120 -93 -288 -126 -374
-145 -383 -149 -396 -102 -451 14 -17 30 -31 34 -31 29 0 69 87 115 251 14 51
18 56 40 52 13 -3 48 6 82 22 71 33 190 75 214 75 12 0 20 -11 24 -32 14 -67
98 -315 125 -368 48 -94 80 -110 116 -54 35 52 25 118 -33 235 -29 57 -64 142
-78 189 -41 136 -156 696 -164 799 -6 74 -12 97 -26 108 -30 21 -54 15 -75
-19z m90 -679 c0 -6 -212 -71 -217 -66 -2 2 4 23 11 48 8 24 41 125 72 224
l57 180 38 -190 c21 -104 39 -193 39 -196z"/>
<path d="M5673 2183 c-20 -30 -42 -144 -43 -220 0 -28 -9 -152 -21 -275 -11
-123 -24 -329 -30 -458 -5 -129 -12 -256 -15 -281 -5 -39 -2 -50 21 -77 15
-18 32 -32 39 -32 7 0 28 16 47 36 18 19 70 54 113 77 239 124 326 257 326
498 0 126 -22 200 -74 255 -66 68 -147 68 -278 2 l-38 -18 0 23 c0 12 7 77 15
142 8 66 15 123 15 128 0 4 39 7 88 7 110 0 157 13 199 55 29 29 33 40 33 84
0 71 -20 80 -132 57 -106 -21 -133 -20 -187 4 -55 25 -57 25 -78 -7z m301
-626 c18 -24 21 -43 21 -120 0 -105 -16 -145 -82 -211 -69 -69 -199 -146 -223
-131 -22 14 0 373 25 411 32 50 114 85 189 81 41 -2 53 -7 70 -30z"/>
<path d="M3711 1853 c-5 -10 -36 -110 -69 -223 -62 -208 -129 -406 -176 -515
-59 -138 -5 -281 60 -160 29 52 133 365 176 525 22 84 34 115 36 95 30 -353
78 -584 128 -626 20 -17 59 -3 72 26 19 41 14 89 -13 142 -30 58 -55 183 -95
483 -28 211 -31 226 -55 248 -31 27 -51 28 -64 5z"/>
<path d="M6981 1853 c-5 -10 -36 -110 -69 -223 -62 -208 -129 -406 -176 -515
-59 -138 -5 -281 60 -160 29 52 133 365 176 525 22 84 34 115 36 95 30 -353
78 -584 128 -626 20 -17 59 -3 72 26 19 41 14 89 -13 142 -30 58 -55 183 -95
483 -28 211 -31 226 -55 248 -31 27 -51 28 -64 5z"/>
<path d="M7381 1844 c-26 -33 -29 -50 -42 -284 -5 -107 -19 -284 -29 -394 -10
-109 -16 -206 -13 -215 10 -27 35 -51 54 -51 37 0 48 39 56 195 5 125 9 151
25 167 41 41 54 25 122 -150 71 -181 130 -236 199 -182 31 24 51 84 37 110 -5
10 -22 20 -39 23 -37 8 -59 39 -116 169 -25 58 -55 114 -65 123 -19 17 -19 18
9 59 15 22 47 78 70 123 40 76 57 98 112 147 18 15 21 26 17 68 -10 97 -71
115 -127 38 -16 -23 -53 -97 -82 -166 -37 -90 -65 -140 -95 -173 -23 -25 -45
-43 -49 -39 -4 4 2 82 14 175 25 200 26 232 5 261 -20 29 -38 28 -63 -4z"/>
<path d="M1281 1829 c-20 -32 -25 -69 -37 -237 -5 -71 -10 -94 -23 -101 -23
-13 -170 -35 -178 -27 -4 3 -1 83 6 177 14 187 12 199 -40 199 -53 0 -60 -27
-70 -258 -5 -114 -13 -260 -19 -324 -21 -244 -11 -328 41 -328 39 0 56 50 62
193 4 72 9 142 12 153 9 29 47 44 127 51 l68 6 0 -74 c0 -107 18 -237 40 -286
22 -51 53 -57 89 -19 26 28 25 60 -5 136 -26 67 -24 375 4 563 15 101 18 146
11 165 -20 52 -60 56 -88 11z"/>
<path d="M1725 1851 c-38 -16 -104 -99 -148 -188 -88 -175 -128 -330 -131
-498 -1 -97 2 -116 23 -158 41 -85 95 -87 172 -8 26 27 64 84 86 128 l41 81 6
-82 c8 -95 30 -178 51 -196 21 -17 62 -4 82 26 22 34 22 93 1 105 -40 22 -46
169 -22 571 l7 107 -26 12 c-15 7 -28 23 -32 39 -13 57 -58 82 -110 61z m45
-180 c16 -31 12 -131 -10 -215 -37 -146 -143 -336 -187 -336 -19 0 -26 62 -14
139 28 177 137 431 186 431 8 0 19 -9 25 -19z"/>
<path d="M8771 1829 c-20 -32 -25 -69 -37 -237 -5 -71 -10 -94 -23 -101 -23
-13 -170 -35 -178 -27 -4 3 -1 83 6 177 14 187 12 199 -40 199 -53 0 -60 -27
-70 -258 -5 -114 -13 -260 -19 -324 -21 -244 -11 -328 41 -328 39 0 56 50 62
193 4 72 9 142 12 153 9 29 47 44 127 51 l68 6 0 -74 c0 -107 18 -237 40 -286
22 -51 53 -57 89 -19 26 28 25 60 -5 136 -26 67 -24 375 4 563 15 101 18 146
11 165 -20 52 -60 56 -88 11z"/>
<path d="M2062 1833 c-5 -10 -12 -76 -15 -148 -4 -71 -12 -211 -18 -310 -20
-326 -5 -465 50 -465 29 0 41 23 58 102 19 94 134 441 169 510 23 46 28 50 35
33 4 -11 8 -69 9 -130 1 -179 17 -349 34 -383 17 -33 43 -46 69 -36 38 14 65
86 157 414 59 209 68 212 81 23 25 -353 33 -404 73 -449 29 -35 68 -27 96 19
27 43 25 89 -4 131 -28 42 -42 118 -51 271 -14 265 -39 368 -90 381 -67 17
-116 -66 -186 -312 -27 -99 -52 -187 -55 -197 -12 -41 -18 2 -24 202 -6 187
-9 214 -29 255 -38 77 -94 71 -145 -16 -34 -59 -88 -202 -122 -325 -15 -57
-29 -101 -31 -99 -2 2 6 85 17 184 23 205 24 252 10 304 -15 54 -69 78 -88 41z"/>
<path d="M3155 1836 c-97 -42 -190 -256 -217 -496 -22 -197 20 -359 104 -404
32 -18 40 -19 79 -7 133 39 259 312 259 560 0 254 -97 403 -225 347z m77 -173
c40 -44 51 -224 22 -336 -30 -118 -107 -237 -154 -237 -27 0 -40 22 -52 91
-14 83 2 218 43 346 43 132 97 185 141 136z"/>
<path d="M6425 1836 c-97 -42 -190 -256 -217 -496 -22 -197 20 -359 104 -404
32 -18 40 -19 79 -7 133 39 259 312 259 560 0 254 -97 403 -225 347z m77 -173
c40 -44 51 -224 22 -336 -30 -118 -107 -237 -154 -237 -27 0 -40 22 -52 91
-14 83 2 218 43 346 43 132 97 185 141 136z"/>
<path d="M9165 1836 c-97 -42 -190 -256 -217 -496 -22 -197 20 -359 104 -404
32 -18 40 -19 79 -7 133 39 259 312 259 560 0 254 -97 403 -225 347z m77 -173
c40 -44 51 -224 22 -336 -30 -118 -107 -237 -154 -237 -27 0 -40 22 -52 91
-14 83 2 218 43 346 43 132 97 185 141 136z"/>
<path d="M8214 1815 c-12 -18 -18 -67 -24 -207 -9 -184 -18 -240 -48 -287 -63
-100 -124 -161 -161 -161 -15 0 -31 67 -31 126 0 62 23 200 50 297 26 94 26
167 1 198 -19 23 -21 23 -48 9 -23 -13 -31 -28 -44 -80 -48 -192 -71 -538 -41
-623 18 -50 59 -97 85 -97 38 0 103 48 162 120 31 38 58 70 59 70 1 0 -2 -42
-6 -92 -18 -203 -56 -358 -100 -406 -19 -19 -30 -23 -60 -19 -49 7 -80 31
-124 100 -21 31 -41 57 -45 57 -17 0 -39 -46 -39 -81 0 -49 52 -149 100 -193
66 -60 156 -70 214 -25 32 26 89 143 109 229 38 159 64 447 74 815 5 219 4
242 -11 258 -25 24 -53 21 -72 -8z"/>
<path d="M4101 1804 c-12 -16 -21 -41 -21 -63 0 -19 -12 -128 -26 -241 -33
-265 -31 -398 8 -482 32 -69 61 -87 108 -68 57 24 93 79 178 270 9 21 11 13
11 -51 2 -134 27 -233 64 -245 16 -5 28 1 49 25 33 37 35 53 8 96 -43 69 -48
277 -13 546 14 108 14 129 2 155 -20 41 -54 44 -73 6 -8 -16 -26 -92 -40 -168
-36 -199 -93 -351 -161 -433 -55 -64 -71 -32 -62 123 3 55 17 167 31 248 28
161 32 237 15 271 -24 44 -49 48 -78 11z"/>
<path d="M4684 1822 c-21 -14 -31 -48 -38 -127 -4 -44 -16 -152 -28 -240 -35
-280 -15 -453 58 -502 65 -42 159 53 220 222 l22 60 5 -35 c3 -19 8 -70 11
-113 7 -92 35 -167 64 -167 22 0 57 35 67 68 4 15 -1 34 -14 56 -45 72 -51
315 -15 562 15 96 15 114 3 140 -19 40 -58 40 -78 0 -7 -16 -24 -89 -36 -163
-34 -195 -91 -350 -160 -431 -55 -65 -71 -33 -62 122 3 55 17 168 32 250 14
82 25 172 25 198 0 64 -23 108 -55 108 -5 0 -15 -4 -21 -8z"/>
<path d="M4972 725 c-22 -25 -33 -49 -38 -85 -6 -48 -8 -50 -38 -50 -17 0 -38
-4 -46 -10 -12 -7 -11 -10 5 -15 62 -21 79 -32 102 -66 14 -21 28 -59 31 -84
5 -48 22 -73 22 -33 0 77 70 178 124 178 41 0 27 24 -16 28 -33 3 -37 6 -43
40 -8 42 -37 103 -58 120 -12 10 -20 6 -45 -23z m63 -79 c24 -62 14 -85 -33
-82 -32 1 -37 6 -40 28 -4 34 23 98 42 98 8 0 22 -20 31 -44z"/>
<path d="M3925 559 c-31 -28 -35 -36 -35 -81 0 -43 4 -54 33 -83 49 -49 124
-63 224 -42 l76 17 34 -30 c39 -34 109 -43 120 -15 9 24 -5 30 -25 12 -10 -10
-28 -17 -39 -17 -27 0 -79 48 -66 61 13 13 258 99 280 99 19 0 123 -78 123
-91 0 -5 -13 -3 -30 6 -41 21 -92 19 -124 -6 -14 -11 -26 -25 -26 -31 0 -6 6
-6 15 2 10 8 36 11 74 8 50 -3 69 -11 130 -53 58 -39 81 -49 124 -53 49 -4 57
-1 88 26 28 25 34 37 34 71 0 108 -148 178 -320 152 -69 -10 -77 -9 -110 10
-24 14 -60 23 -103 27 -112 8 -169 -31 -182 -121 -5 -40 -7 -42 -60 -59 -72
-22 -106 -22 -157 2 -51 23 -83 70 -83 123 0 48 36 87 80 87 37 0 74 -34 67
-61 -6 -22 10 -36 25 -21 17 17 0 61 -32 77 -48 25 -94 19 -135 -16z m534 -36
c28 -9 51 -19 51 -23 0 -4 -17 -10 -38 -13 -31 -4 -145 -45 -229 -84 -18 -7
-16 22 3 62 18 39 82 75 130 75 18 0 55 -7 83 -17z m379 -51 c79 -42 108 -130
56 -171 -54 -43 -109 -16 -163 78 -40 72 -61 87 -61 46 0 -26 0 -26 -50 17
-34 29 -46 45 -37 51 7 4 57 6 112 4 79 -2 109 -8 143 -25z"/>
<path d="M5955 580 c-31 -12 -47 -36 -43 -65 4 -37 22 -36 26 2 6 61 69 82
119 39 23 -20 28 -32 27 -69 -2 -82 -62 -132 -159 -131 -82 1 -135 25 -135 59
0 115 -144 172 -277 110 -48 -22 -58 -23 -115 -14 -117 20 -221 -5 -285 -67
-36 -34 -43 -47 -43 -78 0 -48 13 -72 50 -91 53 -28 97 -19 194 37 95 55 171
73 201 48 9 -7 19 -10 23 -6 4 4 -6 19 -23 32 -35 28 -82 31 -126 8 -50 -25
-44 -10 16 42 l57 48 46 -13 c98 -26 252 -85 252 -97 0 -16 -48 -54 -67 -54
-7 0 -24 7 -37 16 -27 17 -45 4 -21 -16 25 -20 96 -6 123 25 l22 27 67 -17
c149 -38 273 20 273 127 0 77 -89 130 -165 98z m-239 -65 c34 -22 56 -60 52
-88 l-3 -25 -90 39 c-49 21 -109 41 -132 45 -24 3 -43 10 -43 15 0 5 21 15 48
24 55 17 134 13 168 -10z m-292 -21 c12 -5 5 -16 -32 -50 -26 -24 -50 -43 -53
-44 -3 0 -5 10 -5 21 2 43 -24 29 -53 -29 -33 -65 -81 -112 -115 -112 -26 0
-62 24 -77 51 -24 46 31 125 106 153 40 15 199 22 229 10z"/>
<path d="M3257 434 c-1 -1 -256 -5 -567 -9 -311 -4 -614 -8 -675 -10 -60 -2
-353 -6 -650 -10 -297 -4 -569 -8 -605 -10 -36 -2 -202 -3 -369 -4 -167 -1
-302 -3 -300 -6 6 -6 292 -13 814 -20 209 -3 812 -12 1340 -20 1298 -20 1329
-20 1405 -6 107 21 125 39 62 64 -62 25 -183 38 -322 35 -72 -2 -132 -4 -133
-4z"/>
<path d="M6355 426 c-159 -31 -167 -60 -25 -86 76 -15 113 -14 1400 5 531 8
1136 17 1345 20 522 7 808 14 814 20 2 3 -133 5 -300 6 -167 0 -340 2 -384 4
-44 2 -309 6 -590 10 -280 3 -577 8 -660 10 -82 2 -361 6 -620 10 -258 3 -569
7 -690 10 -159 3 -239 0 -290 -9z"/>
<path d="M38 383 c7 -3 16 -2 19 1 4 3 -2 6 -13 5 -11 0 -14 -3 -6 -6z"/>
<path d="M9918 383 c6 -2 18 -2 25 0 6 3 1 5 -13 5 -14 0 -19 -2 -12 -5z"/>
<path d="M4994 302 c-6 -4 -18 -21 -27 -38 -9 -17 -23 -37 -33 -45 -15 -13
-15 -14 6 -19 17 -4 26 -17 35 -53 7 -26 15 -51 19 -55 12 -11 36 29 43 70 4
28 10 38 24 38 24 0 24 6 -1 38 -12 15 -29 37 -38 49 -10 13 -22 20 -28 15z"/>
</g>
</svg>
